
<svg width="255px" height="103px" viewBox="0 0 255 103" version="1.1" xmlns="http://www.w3.org/2000/svg" xmlns:xlink="http://www.w3.org/1999/xlink">
    <!-- Generator: Sketch 49.2 (51160) - http://www.bohemiancoding.com/sketch -->
    <desc>Created with Sketch.</desc>
    <defs>
        <polygon id="path-1" points="0.06 0.098 212.524 0.098 212.524 88.653 0.06 88.653"></polygon>
    </defs>
    <g id="Symbols" stroke="none" stroke-width="1" fill="none" fill-rule="evenodd">
        <g id="zepto-logo">
            <path d="M233.194,11.019 C231.35,11.066 229.845,11.291 228.674,11.695 C227.503,12.098 226.483,12.715 225.613,13.547 C224.741,14.379 223.923,15.458 223.162,16.786 C222.399,18.111 221.529,19.722 220.551,21.615 L216.611,29.249 C215.938,30.555 215.364,31.742 214.89,32.812 C214.416,33.883 214.206,34.791 214.264,35.537 C214.319,36.283 214.725,36.854 215.484,37.249 C216.241,37.646 217.541,37.82 219.385,37.773 C221.174,37.728 222.656,37.502 223.827,37.099 C224.996,36.695 225.995,36.121 226.823,35.374 C227.649,34.625 228.386,33.705 229.03,32.607 C229.673,31.513 230.353,30.269 231.07,28.882 L235.01,21.247 C236.052,19.227 236.875,17.558 237.481,16.233 C238.085,14.911 238.369,13.855 238.336,13.066 C238.3,12.28 237.881,11.73 237.081,11.417 C236.278,11.106 234.986,10.973 233.194,11.019 Z M214.207,47.807 C209.466,47.927 205.826,47.676 203.287,47.056 C200.749,46.436 199.11,45.378 198.377,43.881 C197.641,42.385 197.67,40.391 198.462,37.9 C199.251,35.412 200.582,32.357 202.449,28.739 L206.554,20.788 C208.378,17.255 210.168,14.262 211.928,11.809 C213.687,9.356 215.721,7.353 218.033,5.8 C220.34,4.247 223.123,3.086 226.378,2.319 C229.633,1.55 233.632,1.107 238.371,0.986 C243.164,0.864 246.805,1.135 249.299,1.798 C251.788,2.46 253.401,3.541 254.136,5.037 C254.871,6.535 254.847,8.496 254.062,10.924 C253.277,13.351 252.005,16.269 250.245,19.676 L246.143,27.626 C244.274,31.245 242.444,34.311 240.653,36.826 C238.86,39.342 236.79,41.388 234.446,42.962 C232.1,44.537 229.311,45.708 226.083,46.476 C222.854,47.243 218.895,47.686 214.207,47.807 Z" id="Fill-14" fill="#D0322F"></path>
            <path d="M96.462,39.319 L71.601,39.953 L76.269,30.76 L97.933,30.207 L103.991,18.28 L82.327,18.831 L86.14,11.323 L109.961,10.716 L115.041,1.377 L75.347,1.508 L49.647,52.748 C60.728,51.168 75.01,49.451 92.392,47.988 L96.462,39.319" id="Fill-15" fill="#D0322F"></path>
            <g id="Group-19" transform="translate(0.000000, 1.000000)">
                <mask id="mask-2" fill="white">
                    <use xlink:href="#path-1"></use>
                </mask>
                <g id="Clip-17"></g>
                <path d="M194.144,10.734 L207.576,10.34 L212.524,0.412 L169.472,0.098 L163.677,11.509 L178.35,11.136 L161.378,43.61 C166.533,43.519 171.829,43.459 177.257,43.434 L194.144,10.734" id="Fill-16" fill="#D0322F" mask="url(#mask-2)"></path>
                <path d="M38.271,57.956 C50.241,35.486 68.976,0.422 68.976,0.422 L16.775,0.421 L7.478,16.95 L40.511,16.951 C40.511,16.951 27.353,35.441 0,88.653 C31.088,77.766 59.033,71.025 82.495,66.794 L89.988,51.717 C67.082,53.631 49.86,56.02 38.271,57.956" id="Fill-18" fill="#D0322F" mask="url(#mask-2)"></path>
            </g>
            <path d="M132.823,9.734 L135.758,9.66 C137.657,9.612 143.024,9.602 143.961,9.831 C144.895,10.062 145.507,10.449 145.799,10.994 C146.09,11.539 146.087,12.242 145.794,13.101 C145.498,13.962 145.044,14.998 144.427,16.21 C143.597,17.844 142.805,19.095 142.051,19.968 C141.294,20.84 140.399,21.483 139.365,21.901 C138.328,22.32 137.073,22.581 135.6,22.687 C134.126,22.794 128.313,22.977 126.068,23.036 L132.823,9.734 Z M169.545,59.745 C170.363,58.06 175.031,49.332 175.031,49.332 C151.204,49.406 130.208,50.158 111.995,51.265 L120.381,34.235 C123.88,34.145 131.262,33.844 134.623,33.527 C137.978,33.212 141.204,32.44 144.289,31.212 C147.375,29.986 150.266,28.164 152.965,25.75 C155.663,23.336 158.111,19.964 160.312,15.632 C162.558,11.209 162.458,9.916 162.181,7.557 C161.903,5.196 160.862,3.499 159.06,2.463 C157.256,1.43 154.963,0.855 152.181,0.744 C149.397,0.631 146.597,0.609 143.777,0.681 L121.453,1.25 L116.741,10.558 L116.816,10.557 L83.056,78.491 C88.888,76.77 94.872,75.138 100.998,73.598 L105.51,64.435 C127.899,61.385 144.383,60.719 153.178,60.29 L147.063,71.821 C204.985,62.605 245.528,65.966 245.528,65.966 C245.528,65.966 219.333,59.582 169.545,59.745 Z" id="Fill-20" fill="#D0322F"></path>
            <polyline id="Fill-21" fill="#1A3346" points="89.691 102.127 100.885 81.416 114.136 81.416 111.893 85.569 103.293 85.569 101.132 89.577 109.322 89.577 107.194 93.497 99.004 93.497 96.625 97.944 106.044 97.944 103.79 102.127 89.691 102.127"></polyline>
            <polyline id="Fill-22" fill="#1A3346" points="119.176 102.127 118.799 94.726 110.079 102.127 104.053 102.127 117.747 91.186 116.739 81.416 122.209 81.416 122.428 87.969 130.078 81.416 135.958 81.416 123.584 91.304 124.764 102.127 119.176 102.127"></polyline>
            <path d="M140.207,90.397 C141.474,90.397 142.557,90.196 143.454,89.794 C144.351,89.392 144.985,88.681 145.356,87.66 C145.521,87.21 145.575,86.832 145.52,86.527 C145.465,86.224 145.323,85.983 145.095,85.807 C144.867,85.63 144.561,85.508 144.176,85.439 C143.792,85.37 143.355,85.336 142.868,85.336 L140.878,85.336 L138.13,90.397 L140.207,90.397 Z M144.967,81.416 C147.404,81.416 149.087,81.924 150.016,82.937 C150.943,83.952 151.077,85.365 150.417,87.179 C149.97,88.407 149.368,89.471 148.613,90.368 C147.857,91.265 146.975,92.001 145.966,92.576 C144.957,93.151 143.842,93.575 142.622,93.849 C141.4,94.122 140.098,94.258 138.714,94.258 L136.051,94.258 L131.783,102.127 L126.958,102.127 L138.151,81.416 L144.967,81.416 Z" id="Fill-23" fill="#1A3346"></path>
            <path d="M158.854,90.28 C160.16,90.28 161.252,90.066 162.129,89.641 C163.006,89.214 163.614,88.534 163.953,87.604 C164.263,86.752 164.172,86.17 163.681,85.86 C163.188,85.55 162.436,85.394 161.422,85.394 L159.345,85.394 L156.689,90.28 L158.854,90.28 Z M162.703,102.127 L157.204,102.127 L156.757,93.79 L154.769,93.79 L150.33,102.127 L145.592,102.127 L156.785,81.416 L163.865,81.416 C166.146,81.416 167.75,81.899 168.676,82.864 C169.602,83.829 169.749,85.181 169.118,86.916 C168.508,88.593 167.55,89.963 166.247,91.025 C164.943,92.089 163.44,92.815 161.739,93.204 L162.703,102.127 Z" id="Fill-24" fill="#1A3346"></path>
            <polyline id="Fill-25" fill="#1A3346" points="164.78 102.127 175.974 81.416 189.226 81.416 186.983 85.569 178.382 85.569 176.222 89.577 184.412 89.577 182.284 93.497 174.093 93.497 171.714 97.944 181.133 97.944 178.88 102.127 164.78 102.127"></polyline>
            <path d="M200.938,86.448 C200.739,85.921 200.398,85.521 199.912,85.248 C199.426,84.976 198.823,84.839 198.101,84.839 C197.77,84.839 197.402,84.883 197,84.971 C196.598,85.058 196.208,85.204 195.831,85.409 C195.454,85.614 195.107,85.872 194.789,86.185 C194.471,86.496 194.229,86.876 194.066,87.325 C193.853,87.91 193.914,88.374 194.248,88.715 C194.582,89.056 195.105,89.372 195.818,89.665 C196.601,89.977 197.275,90.323 197.838,90.704 C198.402,91.084 198.839,91.519 199.149,92.005 C199.459,92.493 199.629,93.044 199.66,93.658 C199.689,94.272 199.563,94.97 199.279,95.75 C198.824,96.998 198.178,98.061 197.343,98.938 C196.506,99.815 195.578,100.532 194.556,101.089 C193.535,101.644 192.471,102.049 191.364,102.303 C190.258,102.556 189.208,102.683 188.213,102.683 C187.472,102.683 186.756,102.614 186.064,102.477 C185.373,102.341 184.734,102.142 184.147,101.878 C183.561,101.614 183.049,101.278 182.613,100.868 C182.178,100.459 181.851,99.991 181.633,99.465 L186.295,96.54 C186.478,97.164 186.898,97.671 187.555,98.061 C188.213,98.451 188.952,98.645 189.771,98.645 C190.199,98.645 190.63,98.602 191.062,98.514 C191.493,98.427 191.902,98.28 192.289,98.075 C192.675,97.87 193.02,97.607 193.322,97.286 C193.625,96.964 193.857,96.579 194.021,96.13 C194.283,95.409 194.199,94.839 193.766,94.419 C193.334,94 192.69,93.624 191.835,93.292 C191.238,93.059 190.695,92.795 190.207,92.503 C189.719,92.21 189.333,91.85 189.051,91.421 C188.768,90.991 188.603,90.479 188.557,89.885 C188.51,89.29 188.639,88.573 188.944,87.734 C189.328,86.682 189.893,85.731 190.64,84.883 C191.388,84.034 192.25,83.313 193.227,82.718 C194.205,82.124 195.259,81.665 196.39,81.343 C197.521,81.021 198.662,80.86 199.813,80.86 C200.417,80.86 201.01,80.919 201.592,81.036 C202.173,81.153 202.71,81.323 203.205,81.548 C203.697,81.772 204.128,82.05 204.495,82.382 C204.861,82.714 205.132,83.094 205.308,83.522 L200.938,86.448" id="Fill-26" fill="#1A3346"></path>
            <path d="M218.05,86.448 C217.852,85.921 217.51,85.521 217.024,85.248 C216.538,84.976 215.935,84.839 215.214,84.839 C214.882,84.839 214.515,84.883 214.112,84.971 C213.71,85.058 213.32,85.204 212.943,85.409 C212.566,85.614 212.219,85.872 211.901,86.185 C211.583,86.496 211.342,86.876 211.179,87.325 C210.966,87.91 211.025,88.374 211.36,88.715 C211.693,89.056 212.217,89.372 212.93,89.665 C213.714,89.977 214.387,90.323 214.951,90.704 C215.515,91.084 215.951,91.519 216.262,92.005 C216.571,92.493 216.741,93.044 216.772,93.658 C216.802,94.272 216.675,94.97 216.391,95.75 C215.937,96.998 215.291,98.061 214.455,98.938 C213.618,99.815 212.69,100.532 211.669,101.089 C210.647,101.644 209.583,102.049 208.477,102.303 C207.371,102.556 206.32,102.683 205.326,102.683 C204.584,102.683 203.868,102.614 203.178,102.477 C202.485,102.341 201.846,102.142 201.26,101.878 C200.673,101.614 200.162,101.278 199.726,100.868 C199.29,100.459 198.963,99.991 198.745,99.465 L203.408,96.54 C203.59,97.164 204.01,97.671 204.667,98.061 C205.325,98.451 206.064,98.645 206.883,98.645 C207.312,98.645 207.742,98.602 208.174,98.514 C208.605,98.427 209.015,98.28 209.401,98.075 C209.788,97.87 210.132,97.607 210.435,97.286 C210.737,96.964 210.969,96.579 211.133,96.13 C211.396,95.409 211.311,94.839 210.878,94.419 C210.446,94 209.802,93.624 208.948,93.292 C208.35,93.059 207.808,92.795 207.319,92.503 C206.831,92.21 206.446,91.85 206.163,91.421 C205.88,90.991 205.716,90.479 205.669,89.885 C205.622,89.29 205.751,88.573 206.057,87.734 C206.44,86.682 207.005,85.731 207.752,84.883 C208.5,84.034 209.363,83.313 210.34,82.718 C211.317,82.124 212.371,81.665 213.502,81.343 C214.633,81.021 215.774,80.86 216.925,80.86 C217.529,80.86 218.122,80.919 218.704,81.036 C219.285,81.153 219.823,81.323 220.316,81.548 C220.81,81.772 221.24,82.05 221.607,82.382 C221.973,82.714 222.245,83.094 222.42,83.522 L218.05,86.448" id="Fill-27" fill="#1A3346"></path>
        </g>
    </g>
</svg>